<?xml version="1.0" encoding="UTF-8" standalone="no"?>
<!-- Created with Inkscape (http://www.inkscape.org/) -->

<svg
   xmlns:dc="http://purl.org/dc/elements/1.1/"
   xmlns:cc="http://creativecommons.org/ns#"
   xmlns:rdf="http://www.w3.org/1999/02/22-rdf-syntax-ns#"
   xmlns:svg="http://www.w3.org/2000/svg"
   xmlns="http://www.w3.org/2000/svg"
   xmlns:sodipodi="http://sodipodi.sourceforge.net/DTD/sodipodi-0.dtd"
   xmlns:inkscape="http://www.inkscape.org/namespaces/inkscape"
   width="104.3849mm"
   height="150.88776mm"
   viewBox="0 0 369.86774 534.64165"
   id="svg2"
   version="1.1"
   inkscape:version="0.91 r13725"
   sodipodi:docname="christmas tree.svg">
  <defs
     id="defs4" />
  <sodipodi:namedview
     id="base"
     pagecolor="#ffffff"
     bordercolor="#666666"
     borderopacity="1.0"
     inkscape:pageopacity="0.0"
     inkscape:pageshadow="2"
     inkscape:zoom="0.24748737"
     inkscape:cx="863.97592"
     inkscape:cy="318.22003"
     inkscape:document-units="px"
     inkscape:current-layer="layer1"
     showgrid="false"
     fit-margin-top="0"
     fit-margin-left="0"
     fit-margin-right="0"
     fit-margin-bottom="0"
     inkscape:window-width="1366"
     inkscape:window-height="745"
     inkscape:window-x="-8"
     inkscape:window-y="-8"
     inkscape:window-maximized="1" />
  <metadata
     id="metadata7">
    <rdf:RDF>
      <cc:Work
         rdf:about="">
        <dc:format>image/svg+xml</dc:format>
        <dc:type
           rdf:resource="http://purl.org/dc/dcmitype/StillImage" />
        <dc:title></dc:title>
      </cc:Work>
    </rdf:RDF>
  </metadata>
  <g
     inkscape:label="Layer 1"
     inkscape:groupmode="layer"
     id="layer1"
     transform="translate(518.44517,-304.66343)">
    <g
       id="g4210"
       transform="matrix(0.57019413,0,0,0.57019413,-63.859453,360.73826)">
      <path
         d="m -478.37695,56.875 c -3.18182,0.01749 -6.32194,0.411696 -9.17578,1.238281 -7.68701,2.22646 -13.22332,7.85551 -18.53711,18.84375 -6.54539,13.53502 -5.39989,21.13203 4.79687,31.822269 6.1759,6.47479 8.07328,7.80043 12.79297,8.93945 4.31263,1.04077 4.57034,1.0375 13.125,-0.15234 4.2738,-0.59443 9.36877,-1.90583 11.32227,-2.91602 5.1136,-2.64432 11.46758,-9.77729 13.39257,-15.035156 3.36121,-9.180685 1.10338,-26.322565 -4.5039,-34.197265 -3.74165,-5.254665 -13.66743,-8.59543 -23.21289,-8.542969 z m 34.08007,123.83008 c -5.23692,-0.0699 -10.37992,0.59893 -14.29687,2.06445 -9.01756,3.3739 -12.61361,7.30419 -14.83203,16.21289 -2.86256,11.4954 -0.91868,21.16807 5.69922,28.34766 4.32944,4.69688 8.22519,7.16523 13.22656,8.38281 4.18847,1.01968 4.11827,1.02266 12.74609,-0.51562 9.06802,-1.61677 13.00626,-3.81138 19.19727,-10.69727 5.53904,-6.16075 6.99308,-10.96214 6.16602,-20.35156 -0.80595,-9.14969 -4.70342,-17.09247 -9.64063,-19.64453 -4.6434,-2.40019 -11.53243,-3.70902 -18.26563,-3.79883 z m -79.45898,113.46094 c -4.40359,-0.0663 -17.69392,1.48149 -21.24414,2.60351 -9.42506,2.9787 -18.89894,12.0806 -21.10547,20.27344 -1.83511,6.81381 -0.7349,22.2732 1.98438,27.87109 2.68682,5.5311 4.14191,6.47946 13.62109,8.86719 9.19099,2.31513 16.58427,1.9109 23.54492,-1.28711 7.80621,-3.5865 12.21949,-7.83343 15.96485,-15.36523 3.03912,-6.11159 3.21196,-7.02348 2.79101,-14.74805 -0.2839,-5.20977 -1.11198,-9.51769 -2.25586,-11.73242 -2.43354,-4.71169 -10.57996,-15.80019 -12.01172,-16.34961 -0.21208,-0.0814 -0.65998,-0.12334 -1.28906,-0.13281 z m 142.76563,19.09765 -9.25586,1.28516 c -16.12656,2.23904 -23.13065,6.54896 -28.35352,17.44726 -4.08292,8.51962 -4.47069,14.81017 -1.31445,21.33008 3.60153,7.43978 11.15291,11.14407 22.91406,11.24219 5.32268,0.0444 7.58676,-0.49587 12.5,-2.98242 13.55106,-6.85805 16,-10.36451 16,-22.90625 0,-6.31488 -0.46573,-8.44842 -2.87695,-13.20703 -1.58186,-3.12183 -4.39093,-7.14715 -6.24414,-8.94336 l -3.36914,-3.26563 z m -81.11915,127.50195 c -1.70524,-0.001 -3.67641,0.0799 -6,0.2129 -5.86635,0.33565 -11.85628,1.15184 -13.31054,1.81445 -3.07575,1.40139 -9.49553,10.42528 -13.23633,18.60351 -2.32035,5.07279 -2.54187,6.5232 -2.02344,13.2461 0.90623,11.75167 2.35474,15.09758 7.67969,17.73437 9.005,4.45907 23.14657,5.09618 31.34375,1.41407 5.40102,-2.42609 12.79605,-9.0425 14.85547,-13.29102 5.8806,-12.13148 4.44641,-21.89529 -4.80469,-32.70312 -4.69568,-5.48584 -7.11453,-7.02674 -14.50391,-7.03126 z m -155.98437,50.04688 c -0.8467,-0.005 -1.71519,0.0278 -2.60937,0.0996 C -635.4584,492.09651 -644,504.13267 -644,523.74023 c 0,8.45536 0.0934,8.8081 2.97461,11.23243 6.58236,5.5387 17.57128,6.98646 28.16992,3.71093 8.003,-2.47334 15.60375,-7.24301 16.87695,-10.59179 0.53813,-1.41539 0.97852,-6.61272 0.97852,-11.54883 0,-10.23472 -1.677,-14.75378 -7.20703,-19.42774 -5.10309,-4.31312 -9.95984,-6.26624 -15.88672,-6.30273 z m 294.32031,8.09375 c -5.61729,-0.0151 -11.70652,2.89224 -19.08008,8.7207 -7.71076,6.095 -10.14648,12.20126 -10.14648,25.44532 l 0,10.17578 5.09375,5.71484 c 2.80114,3.14281 6.06364,6.25975 7.25,6.92578 4.88653,2.74333 25.44825,2.88588 30.65625,0.21289 7.6612,-3.93209 13.64323,-16.42986 12.72266,-26.58203 -0.68562,-7.56118 -4.47918,-15.6274 -10.25,-21.79687 -5.48409,-5.86293 -10.6288,-8.80135 -16.2461,-8.81641 z m -171.19847,171.25912 c -1.77101,-1.09454 -6.13131,2.72358 -18.75667,16.42437 -6.87166,7.45699 -13.84645,14.42313 -15.49952,15.4803 -2.06068,1.31785 -5.42409,2.06214 -10.69842,2.36746 -9.28814,0.53769 -13.40416,-1.16988 -19.9577,-8.27963 -4.76034,-5.16437 -7.27844,-10.17754 -9.58006,-19.07255 -1.52237,-5.88347 -3.98874,-13.83205 -5.6496,-18.20749 -1.22785,-3.23468 -5.39177,-4.51374 -12.59477,-3.86881 -6.787,0.60768 -9.38541,1.73712 -25.85121,11.23661 -13.54072,7.81195 -32.16195,14.26992 -43.5681,15.10971 -9.71769,0.71547 -19.04179,-1.93183 -28.03491,-7.9597 -9.3496,-6.26681 -10.17179,-10.02358 -5.08786,-23.24773 2.71898,-7.07254 7.88503,-14.7377 16.17514,-24 7.41186,-8.28105 9.10323,-11.55666 7.17005,-13.88599 -2.69097,-3.24243 -23.82835,-6.61482 -41.45058,-6.61331 -7.98519,6.9e-4 -36.46575,3.56593 -52.00451,6.51 C -781.16429,616.10024 -789,612.59762 -789,599.3565 c 0,-15.88115 11.54529,-31.04788 40,-52.5469 18.3502,-13.86454 25.80447,-19.58623 30.31555,-23.26939 4.2339,-3.45686 9.33151,-12.76369 8.3673,-15.27639 -0.79844,-2.08069 -8.40319,-2.12464 -22.18285,-0.12818 -20.07152,2.90806 -29.30594,1.60554 -35.52118,-5.01027 -5.09017,-5.41824 -3.06338,-21.96801 3.99546,-32.62491 6.23495,-9.41306 17.9102,-19.0212 45.58966,-37.51793 14.81483,-9.9 29.63606,-19.22546 32.93606,-20.72326 10.33957,-4.6929 20.04005,-11.3648 26.3844,-18.14693 3.36358,-3.59568 6.1156,-7.4053 6.1156,-8.46582 0,-3.92472 -3.26252,-4.23631 -14.7408,-1.40787 -15.30636,3.77175 -24.84907,3.79107 -32.91052,0.0666 -3.38322,-1.56307 -7.38751,-4.13225 -8.89842,-5.7093 -2.61009,-2.72435 -2.7178,-3.2169 -2.15953,-9.87596 0.91868,-10.95796 3.23458,-14.89709 16.47201,-28.01727 16.31435,-16.16985 31.88515,-29.24976 51.4556,-43.22413 18.52855,-13.23042 33.72499,-26.61175 40.99317,-36.09686 9.10025,-11.87597 15.95677,-22.62157 15.58702,-24.42808 -0.46084,-2.25148 -2.73819,-2.07986 -16.43453,1.23847 -17.33565,4.20006 -30.08806,2.95955 -36.614,-3.56168 -3.55496,-3.55238 -3.75,-4.08127 -3.75,-10.16859 0,-10.94326 4.2514,-17.3522 30.1811,-45.49765 16.70607,-18.13365 41.26098,-46.28566 44.80475,-51.36829 1.32224,-1.89643 4.28538,-5.69805 6.58475,-8.44805 13.80762,-16.51364 10.4525,-29.119511 -5.58704,-20.991666 -9.96432,5.049306 -20.16715,6.588436 -27.14731,4.095266 C -602.07229,99.783934 -609,92.400619 -609,87.505339 c 0,-5.74653 16.65991,-27.29354 37.31224,-48.25762 17.59273,-17.85827 35.06542,-39.56546371 41.13159,-51.0998 2.60332,-4.95 5.31669,-9.675 6.02972,-10.5 3.668,-4.244036 17.0795,-27.157372 22.90019,-39.124618 8.04122,-16.532632 13.4371,-24.121307 19.10083,-26.863073 4.48664,-2.171944 9.8959,-2.582353 13.9118,-1.055511 5.3568,2.036651 14.43821,16.631805 24.91571,40.043202 5.01262,11.200424 18.17597,30.478446 26.69199,39.091048 4.12826,4.1750773 12.90593,11.5735053 19.50593,16.4409533 13.99573,10.3217387 31.57646,27.3943487 37.0385,35.9679987 2.10233,3.3 5.30387,8.25 7.11451,11 4.08405,6.20285 6.04497,11.7083 6.91768,19.42202 l 0.675,5.96622 -4.85747,3.08051 c -7.31353,4.6381 -11.24053,5.35168 -25.14013,4.56821 -10.86579,-0.61246 -12.32362,-0.5037 -12.88579,0.9613 -1.07507,2.80158 1.32836,8.612195 7.446,18.001741 7.92545,12.16423 15.60022,20.16105 42.95114,44.75347 12.79269,11.50248 24.51847,22.78852 26.05729,25.08006 3.82963,5.70292 8.18327,15.85043 8.18327,19.07362 0,4.07819 -2.54119,9.24611 -5.49974,11.18464 -2.56559,1.68103 -3.20446,1.64568 -16.83353,-0.93154 -17.979,-3.39976 -22.25934,-3.47618 -22.97544,-0.41025 -1.06151,4.54475 0.95141,11.71377 4.90235,17.45979 10.84864,15.77763 45.56758,49.9617 70.40636,69.3217 6.875,5.35855 13.66268,11.0311 15.08374,12.60566 8.70112,9.64103 13.3954,26.66805 9.45372,34.2904 -3.20698,6.20163 -21.13015,15.07245 -30.45332,15.07245 -2.67862,0 -8.34597,-0.7188 -12.59412,-1.59734 -9.84399,-2.03578 -10.76632,-1.35341 -11.28705,8.35055 -0.3321,6.18872 -0.10471,7.13187 2.74908,11.40222 3.92104,5.86734 9.91641,10.79677 19.79932,16.27909 17.1479,9.51245 57.10445,38.21122 64.27696,46.16692 1.94059,2.15247 5.20309,6.90833 7.25,10.56857 3.12537,5.58868 3.71815,7.59025 3.69971,12.49247 -0.0275,7.30102 -2.40545,12.70157 -7.69103,17.46683 -5.6156,5.06278 -9.36181,6.03653 -21.84362,5.67773 -12.60813,-0.36244 -13.86586,0.39306 -10.93528,6.56881 3.28619,6.92514 12.20134,14.67219 26.49715,23.02542 7.42211,4.33682 15.95283,9.70744 18.95715,11.9347 15.30862,11.34906 36.03158,32.72502 41.54393,42.85301 2.63176,4.83541 2.82165,5.95983 2.8282,16.74723 0.012,19.77288 -0.59623,23.47448 -4.87926,29.69325 -2.07034,3.00604 -4.6683,5.94936 -5.77324,6.54071 -2.86411,1.53282 -14.10248,0.46573 -21.0045,-1.9944 -3.20236,-1.14143 -9.26314,-4.12293 -13.46841,-6.62555 -8.92584,-5.31191 -15.25258,-6.20607 -17.26786,-2.44048 -0.93682,1.75046 -0.57994,3.19166 2.0957,8.46309 5.6678,11.16648 5.12656,26.72804 -1.35413,38.93298 -3.5482,6.68226 -8.69731,10.20934 -13.23994,9.06921 -1.36709,-0.34311 -6.13566,-3.87536 -10.59683,-7.84943 -16.97477,-15.12139 -20.30028,-17.05632 -31.5958,-18.38389 -4.27037,-0.50189 -5.66457,-0.27674 -7.2672,1.17362 -2.29763,2.07933 -2.51118,4.23017 -0.69622,7.01217 1.87197,2.86939 5.65808,12.585 7.28287,18.68869 2.29233,8.61139 1.83237,12.48732 -2.4071,20.28382 -4.60707,8.47253 -9.71771,12.66448 -18.89617,15.49942 -5.86254,1.81076 -7.54367,1.93029 -14.20788,1.01019 -9.00615,-1.24344 -19.47249,-5.91289 -28.97885,-12.92862 -9.74711,-7.19341 -26.81932,-18.07827 -31.83328,-20.29619 -6.59611,-2.91777 -7.24644,-2.24581 -7.24644,7.48747 0,10.43415 -2.16008,15.19485 -11.57485,25.51036 -8.14126,8.92016 -10.51804,10.21737 -18.7205,10.21737 -48.36221,-12.15573 -32.74321,-64.79199 -86.67656,-39.48255 z"
         style="fill:#008000"
         id="path4207"
         inkscape:connector-curvature="0" />
      <path
         id="path4187"
         d="m -422.59441,816.80066 c 0.65789,-1.06449 -1.00416,-21.97267 -2.95338,-37.15274 -0.81217,-6.32501 -1.47458,-16.45001 -1.47203,-22.5 0.003,-6.05 -0.4425,-14.82501 -0.98901,-19.5 -0.5465,-4.675 -1.42085,-14.37473 -1.943,-21.55495 -0.52214,-7.18022 -1.44636,-14.38022 -2.05382,-16 -0.60745,-1.61978 -3.48254,-5.42005 -6.38907,-8.44505 -2.90654,-3.025 -7.88829,-8.65 -11.07056,-12.5 -9.74669,-11.79183 -23.06504,-21.33668 -28.03241,-20.08994 -4.04166,1.0144 -4.48434,5.36902 -4.58381,45.08994 -0.051,20.35 -0.4647,40.825 -0.91944,45.5 -3.77683,38.82878 -5.23307,63.09589 -3.87055,64.5 0.57072,0.58815 12.06741,1.23766 27.91468,1.57709 14.81938,0.31739 27.24713,0.87989 27.61723,1.25 0.97159,0.97158 8.12509,0.82898 8.74517,-0.17435 z"
         style="fill:#803300"
         inkscape:connector-curvature="0" />
      <path
         id="path4185"
         d="m -478.37695,56.875 c -3.18182,0.01749 -6.32194,0.411696 -9.17578,1.238281 -7.68701,2.22646 -13.22332,7.85551 -18.53711,18.84375 -6.54539,13.53502 -5.39989,21.13203 4.79687,31.822269 6.1759,6.47479 8.07328,7.80043 12.79297,8.93945 4.31263,1.04077 4.57034,1.0375 13.125,-0.15234 4.2738,-0.59443 9.36877,-1.90583 11.32227,-2.91602 5.1136,-2.64432 11.46758,-9.77729 13.39257,-15.035156 3.36121,-9.180685 1.10338,-26.322565 -4.5039,-34.197265 -3.74165,-5.254665 -13.66743,-8.59543 -23.21289,-8.542969 z m 34.08007,123.83008 c -5.23692,-0.0699 -10.37992,0.59893 -14.29687,2.06445 -9.01756,3.3739 -12.61361,7.30419 -14.83203,16.21289 -2.86256,11.4954 -0.91868,21.16807 5.69922,28.34766 4.32944,4.69688 8.22519,7.16523 13.22656,8.38281 4.18847,1.01968 4.11827,1.02266 12.74609,-0.51562 9.06802,-1.61677 13.00626,-3.81138 19.19727,-10.69727 5.53904,-6.16075 6.99308,-10.96214 6.16602,-20.35156 -0.80595,-9.14969 -4.70342,-17.09247 -9.64063,-19.64453 -4.6434,-2.40019 -11.53243,-3.70902 -18.26563,-3.79883 z m -79.45898,113.46094 c -4.40359,-0.0663 -17.69392,1.48149 -21.24414,2.60351 -9.42506,2.9787 -18.89894,12.0806 -21.10547,20.27344 -1.83511,6.81381 -0.7349,22.2732 1.98438,27.87109 2.68682,5.5311 4.14191,6.47946 13.62109,8.86719 9.19099,2.31513 16.58427,1.9109 23.54492,-1.28711 7.80621,-3.5865 12.21949,-7.83343 15.96485,-15.36523 3.03912,-6.11159 3.21196,-7.02348 2.79101,-14.74805 -0.2839,-5.20977 -1.11198,-9.51769 -2.25586,-11.73242 -2.43354,-4.71169 -10.57996,-15.80019 -12.01172,-16.34961 -0.21208,-0.0814 -0.65998,-0.12334 -1.28906,-0.13281 z m 142.76563,19.09765 -9.25586,1.28516 c -16.12656,2.23904 -23.13065,6.54896 -28.35352,17.44726 -4.08292,8.51962 -4.47069,14.81017 -1.31445,21.33008 3.60153,7.43978 11.15291,11.14407 22.91406,11.24219 5.32268,0.0444 7.58676,-0.49587 12.5,-2.98242 13.55106,-6.85805 16,-10.36451 16,-22.90625 0,-6.31488 -0.46573,-8.44842 -2.87695,-13.20703 -1.58186,-3.12183 -4.39093,-7.14715 -6.24414,-8.94336 l -3.36914,-3.26563 z m -81.11915,127.50195 c -1.70524,-0.001 -3.67641,0.0799 -6,0.2129 -5.86635,0.33565 -11.85628,1.15184 -13.31054,1.81445 -3.07575,1.40139 -9.49553,10.42528 -13.23633,18.60351 -2.32035,5.07279 -2.54187,6.5232 -2.02344,13.2461 0.90623,11.75167 2.35474,15.09758 7.67969,17.73437 9.005,4.45907 23.14657,5.09618 31.34375,1.41407 5.40102,-2.42609 12.79605,-9.0425 14.85547,-13.29102 5.8806,-12.13148 4.44641,-21.89529 -4.80469,-32.70312 -4.69568,-5.48584 -7.11453,-7.02674 -14.50391,-7.03126 z m -155.98437,50.04688 c -0.8467,-0.005 -1.71519,0.0278 -2.60937,0.0996 C -635.4584,492.09651 -644,504.13267 -644,523.74023 c 0,8.45536 0.0934,8.8081 2.97461,11.23243 6.58236,5.5387 17.57128,6.98646 28.16992,3.71093 8.003,-2.47334 15.60375,-7.24301 16.87695,-10.59179 0.53813,-1.41539 0.97852,-6.61272 0.97852,-11.54883 0,-10.23472 -1.677,-14.75378 -7.20703,-19.42774 -5.10309,-4.31312 -9.95984,-6.26624 -15.88672,-6.30273 z m 294.32031,8.09375 c -5.61729,-0.0151 -11.70652,2.89224 -19.08008,8.7207 -7.71076,6.095 -10.14648,12.20126 -10.14648,25.44532 l 0,10.17578 5.09375,5.71484 c 2.80114,3.14281 6.06364,6.25975 7.25,6.92578 4.88653,2.74333 25.44825,2.88588 30.65625,0.21289 7.6612,-3.93209 13.64323,-16.42986 12.72266,-26.58203 -0.68562,-7.56118 -4.47918,-15.6274 -10.25,-21.79687 -5.48409,-5.86293 -10.6288,-8.80135 -16.2461,-8.81641 z"
         style="fill:#d40000"
         inkscape:connector-curvature="0" />
      <path
         d="m -494.97191,670.16537 c -1.77101,-1.09454 -6.13131,2.72358 -18.75667,16.42437 -6.87166,7.45699 -13.84645,14.42313 -15.49952,15.4803 -2.06068,1.31785 -5.42409,2.06214 -10.69842,2.36746 -9.28814,0.53769 -13.40416,-1.16988 -19.9577,-8.27963 -4.76034,-5.16437 -7.27844,-10.17754 -9.58006,-19.07255 -1.52237,-5.88347 -3.98874,-13.83205 -5.6496,-18.20749 -1.22785,-3.23468 -5.39177,-4.51374 -12.59477,-3.86881 -6.787,0.60768 -9.38541,1.73712 -25.85121,11.23661 -13.54072,7.81195 -32.16195,14.26992 -43.5681,15.10971 -9.71769,0.71547 -19.04179,-1.93183 -28.03491,-7.9597 -9.3496,-6.26681 -10.17179,-10.02358 -5.08786,-23.24773 2.71898,-7.07254 7.88503,-14.7377 16.17514,-24 7.41186,-8.28105 9.10323,-11.55666 7.17005,-13.88599 -2.69097,-3.24243 -23.82835,-6.61482 -41.45058,-6.61331 -7.98519,6.9e-4 -36.46575,3.56593 -52.00451,6.51 C -781.16429,616.10024 -789,612.59762 -789,599.3565 c 0,-15.88115 11.54529,-31.04788 40,-52.5469 18.3502,-13.86454 25.80447,-19.58623 30.31555,-23.26939 4.2339,-3.45686 9.33151,-12.76369 8.3673,-15.27639 -0.79844,-2.08069 -8.40319,-2.12464 -22.18285,-0.12818 -20.07152,2.90806 -29.30594,1.60554 -35.52118,-5.01027 -5.09017,-5.41824 -3.06338,-21.96801 3.99546,-32.62491 6.23495,-9.41306 17.9102,-19.0212 45.58966,-37.51793 14.81483,-9.9 29.63606,-19.22546 32.93606,-20.72326 10.33957,-4.6929 20.04005,-11.3648 26.3844,-18.14693 3.36358,-3.59568 6.1156,-7.4053 6.1156,-8.46582 0,-3.92472 -3.26252,-4.23631 -14.7408,-1.40787 -15.30636,3.77175 -24.84907,3.79107 -32.91052,0.0666 -3.38322,-1.56307 -7.38751,-4.13225 -8.89842,-5.7093 -2.61009,-2.72435 -2.7178,-3.2169 -2.15953,-9.87596 0.91868,-10.95796 3.23458,-14.89709 16.47201,-28.01727 16.31435,-16.16985 31.88515,-29.24976 51.4556,-43.22413 18.52855,-13.23042 33.72499,-26.61175 40.99317,-36.09686 9.10025,-11.87597 15.95677,-22.62157 15.58702,-24.42808 -0.46084,-2.25148 -2.73819,-2.07986 -16.43453,1.23847 -17.33565,4.20006 -30.08806,2.95955 -36.614,-3.56168 -3.55496,-3.55238 -3.75,-4.08127 -3.75,-10.16859 0,-10.94326 4.2514,-17.3522 30.1811,-45.49765 16.70607,-18.13365 41.26098,-46.28566 44.80475,-51.36829 1.32224,-1.89643 4.28538,-5.69805 6.58475,-8.44805 13.80762,-16.51364 10.4525,-29.119511 -5.58704,-20.991666 -9.96432,5.049306 -20.16715,6.588436 -27.14731,4.095266 C -602.07229,99.783934 -609,92.400619 -609,87.505339 c 0,-5.74653 16.65991,-27.29354 37.31224,-48.25762 17.59273,-17.85827 35.06542,-39.56546371 41.13159,-51.0998 2.60332,-4.95 5.31669,-9.675 6.02972,-10.5 3.668,-4.244036 17.0795,-27.157372 22.90019,-39.124618 8.04122,-16.532632 13.4371,-24.121307 19.10083,-26.863073 4.48664,-2.171944 9.8959,-2.582353 13.9118,-1.055511 5.3568,2.036651 14.43821,16.631805 24.91571,40.043202 5.01262,11.200424 18.17597,30.478446 26.69199,39.091048 4.12826,4.1750773 12.90593,11.5735053 19.50593,16.4409533 13.99573,10.3217387 31.57646,27.3943487 37.0385,35.9679987 2.10233,3.3 5.30387,8.25 7.11451,11 4.08405,6.20285 6.04497,11.7083 6.91768,19.42202 l 0.675,5.96622 -4.85747,3.08051 c -7.31353,4.6381 -11.24053,5.35168 -25.14013,4.56821 -10.86579,-0.61246 -12.32362,-0.5037 -12.88579,0.9613 -1.07507,2.80158 1.32836,8.612195 7.446,18.001741 7.92545,12.16423 15.60022,20.16105 42.95114,44.75347 12.79269,11.50248 24.51847,22.78852 26.05729,25.08006 3.82963,5.70292 8.18327,15.85043 8.18327,19.07362 0,4.07819 -2.54119,9.24611 -5.49974,11.18464 -2.56559,1.68103 -3.20446,1.64568 -16.83353,-0.93154 -17.979,-3.39976 -22.25934,-3.47618 -22.97544,-0.41025 -1.06151,4.54475 0.95141,11.71377 4.90235,17.45979 10.84864,15.77763 45.56758,49.9617 70.40636,69.3217 6.875,5.35855 13.66268,11.0311 15.08374,12.60566 8.70112,9.64103 13.3954,26.66805 9.45372,34.2904 -3.20698,6.20163 -21.13015,15.07245 -30.45332,15.07245 -2.67862,0 -8.34597,-0.7188 -12.59412,-1.59734 -9.84399,-2.03578 -10.76632,-1.35341 -11.28705,8.35055 -0.3321,6.18872 -0.10471,7.13187 2.74908,11.40222 3.92104,5.86734 9.91641,10.79677 19.79932,16.27909 17.1479,9.51245 57.10445,38.21122 64.27696,46.16692 1.94059,2.15247 5.20309,6.90833 7.25,10.56857 3.12537,5.58868 3.71815,7.59025 3.69971,12.49247 -0.0275,7.30102 -2.40545,12.70157 -7.69103,17.46683 -5.6156,5.06278 -9.36181,6.03653 -21.84362,5.67773 -12.60813,-0.36244 -13.86586,0.39306 -10.93528,6.56881 3.28619,6.92514 12.20134,14.67219 26.49715,23.02542 7.42211,4.33682 15.95283,9.70744 18.95715,11.9347 15.30862,11.34906 36.03158,32.72502 41.54393,42.85301 2.63176,4.83541 2.82165,5.95983 2.8282,16.74723 0.012,19.77288 -0.59623,23.47448 -4.87926,29.69325 -2.07034,3.00604 -4.6683,5.94936 -5.77324,6.54071 -2.86411,1.53282 -14.10248,0.46573 -21.0045,-1.9944 -3.20236,-1.14143 -9.26314,-4.12293 -13.46841,-6.62555 -8.92584,-5.31191 -15.25258,-6.20607 -17.26786,-2.44048 -0.93682,1.75046 -0.57994,3.19166 2.0957,8.46309 5.6678,11.16648 5.12656,26.72804 -1.35413,38.93298 -3.5482,6.68226 -8.69731,10.20934 -13.23994,9.06921 -1.36709,-0.34311 -6.13566,-3.87536 -10.59683,-7.84943 -16.97477,-15.12139 -20.30028,-17.05632 -31.5958,-18.38389 -4.27037,-0.50189 -5.66457,-0.27674 -7.2672,1.17362 -2.29763,2.07933 -2.51118,4.23017 -0.69622,7.01217 1.87197,2.86939 5.65808,12.585 7.28287,18.68869 2.29233,8.61139 1.83237,12.48732 -2.4071,20.28382 -4.60707,8.47253 -9.71771,12.66448 -18.89617,15.49942 -5.86254,1.81076 -7.54367,1.93029 -14.20788,1.01019 -9.00615,-1.24344 -19.47249,-5.91289 -28.97885,-12.92862 -9.74711,-7.19341 -26.81932,-18.07827 -31.83328,-20.29619 -6.59611,-2.91777 -7.24644,-2.24581 -7.24644,7.48747 0,10.43415 -2.16008,15.19485 -11.57485,25.51036 -8.14126,8.92016 -10.51804,10.21737 -18.7205,10.21737 -48.36221,-12.15573 -32.74321,-64.79199 -86.67656,-39.48255 z m 20.71996,-768.503261 c -14.86385,-0.241585 -24.86123,13.29799 -30.54493,25.476563 -13.09238,26.38113 -28.77139,51.628215 -45.48632,75.8984374 -20.83099,27.1261766 -49.18876,48.5292196 -65.54688,79.0039066 -4.11362,13.036196 7.91863,25.146664 19.78516,28.199214 11.27985,3.1502 23.10674,-0.51315 33.16211,-5.51367 -6.67875,13.26591 -17.81844,23.58152 -26.76953,35.26563 -18.89174,22.13537 -40.09161,42.40906 -57.17383,66.03515 -6.39032,10.52428 -8.49233,26.70503 2.11523,35.29493 12.1841,9.93689 29.34659,8.07574 43.58789,4.51757 -20.22033,30.61072 -54.10978,47.4819 -80.80078,71.52149 -12.16668,10.70547 -24.81871,21.58139 -33.56836,35.35547 -5.3509,10.13109 -7.7361,25.22529 2.32422,33.29687 11.89629,10.38857 29.12936,10.46638 43.69727,6.86914 -14.12118,11.34628 -31.64784,17.49064 -46.00196,28.67188 -19.72202,13.13386 -41.06718,25.61445 -55.40039,44.96484 -7.71967,12.06587 -11.85689,29.37112 -2.98242,41.88672 10.24669,11.42696 27.38157,9.90066 41.11914,7.83594 3.65833,-0.54265 7.20592,-1.17213 10.86914,-1.39258 -8.67387,10.21079 -21.25555,15.91768 -31.00195,24.96484 -18.45017,13.86581 -38.87183,29.92582 -43.84766,53.78321 -2.27929,10.89844 2.8053,24.96045 14.89063,27.0332 15.63259,3.56841 30.98032,-3.53634 46.44531,-4.3457 19.01845,-2.63891 40.01576,-4.31292 58.33008,0.85351 -11.49575,13.44278 -24.83586,28.83442 -23.96094,47.66797 2.48545,12.93225 16.22474,18.84425 27.31641,22.76758 22.57653,5.93826 45.27456,-4.56246 64.90429,-14.79102 8.08394,-4.65395 16.67425,-11.19088 26.5918,-9.49414 4.87305,13.43828 6.55445,29.00132 17.34766,39.47852 11.82202,13.27069 34.39975,13.18014 46.59961,0.51562 7.98098,-7.79558 14.71508,-17.98456 23.95703,-24.35351 0.49305,16.50047 0.26981,51.75059 -0.67383,64.71875 -0.50027,6.875 -1.41539,20.15 -2.03516,29.5 -1.06045,15.99813 -3.07039,27.75262 -6.6289,38.76953 -1.92671,5.96495 -3.17942,6.63714 -21.01172,11.28125 -7.62039,1.9846 -14.64297,4.31713 -15.60547,5.18359 -2.54298,2.28922 -2.18853,5.93156 0.76562,7.86719 3.11892,2.04361 6.54286,1.57048 22.76758,-3.14453 32.80642,-9.53375 58.98181,-11.1552 94.70508,-5.86719 16.7744,2.48307 45.97807,8.26257 52.51172,10.39258 7.09202,2.31204 12.35539,2.22477 13.89453,-0.23242 1.63807,-2.61516 -0.17294,-4.84271 -6.44726,-7.93555 -8.06041,-3.97327 -14.29717,-5.66272 -25.44727,-6.88867 -5.5,-0.60471 -11.60139,-1.50456 -13.55859,-2 -9.2103,-2.33142 -12.57448,-19.5918 -15.38477,-78.92578 -0.65737,-13.8791 -1.09811,-21.69595 -0.6875,-26.15625 9.08936,3.03681 19.37334,2.88259 26.69531,-3.93555 7.74449,-6.91025 15.23717,-15.12162 18.73438,-25.0293 0.9879,-3.49125 1.4563,-7.10521 1.74023,-10.71484 20.5144,11.60291 38.69465,30.7711 63.50391,32.35938 23.17809,1.61023 45.77116,-21.33095 40.46289,-44.74024 -1.18767,-6.68325 -4.77618,-13.47771 -6.58984,-19.38867 16.42849,2.8106 24.19416,20.5595 39.4707,25.68945 10.993,2.95019 19.81364,-7.39438 23.74805,-16.42773 5.32487,-12.35962 5.57477,-26.69771 1.10742,-39.35742 12.60816,6.94653 27.33754,14.50567 42.12695,10.60937 12.01261,-4.39811 16.59155,-18.51205 17.36914,-30.19726 0.19995,-9.35881 0.61524,-18.98645 -1.25,-28.09766 -5.50845,-16.242 -19.85265,-26.99551 -31.05859,-39.17774 -15.69312,-14.89569 -35.55792,-24.2841 -52.53321,-37.33398 -3.71828,-2.57265 -0.4123,-2.27165 2.3418,-2.16602 10.76132,0.24324 22.0464,-3.8462 27.91992,-13.34179 8.876,-12.91102 5.91827,-31.26859 -4.65234,-42.3086 -13.41205,-16.5264 -32.68751,-26.57629 -49.26172,-39.36914 -12.35187,-8.49741 -26.90302,-14.46305 -36.9082,-25.7832 -1.30612,-2.41612 -2.40511,-5.26968 -1.79297,-8.05078 13.41684,3.30414 28.08856,1.935 39.96094,-5.42383 9.86486,-4.61498 17.9739,-15.13958 15.68945,-26.45898 -1.21056,-18.29881 -14.4964,-32.96851 -29.08789,-42.69336 -25.11177,-21.087 -50.47816,-42.75829 -69.61524,-69.61328 -1.52829,-2.33124 -3.152,-5.8501 0.97461,-4.32618 10.75071,1.38058 22.77624,7.12877 33.15235,1.45704 10.40259,-7.13051 10.93568,-22.71403 4.24023,-32.58008 -9.8526,-19.08235 -28.92585,-30.54895 -43.64258,-45.43946 -12.89934,-11.61731 -25.82177,-23.90365 -34.00586,-39.439449 12.05346,1.04478 24.90939,-0.02293 35.06836,-7.183594 8.38476,-5.770015 5.13393,-17.492961 2.53125,-25.490235 -6.86842,-19.183194 -20.99203,-34.88421 -35.86132,-48.357421 -19.44588,-16.5809158 -41.89116,-31.392523 -53.83985,-54.796875 -10.60501,-17.577738 -16.22994,-38.848553 -31.72851,-53.066407 -3.50441,-2.501058 -7.83687,-3.755949 -12.13086,-3.65625 z m 1.66406,769.806641 c 5.63939,-0.18997 11.14588,1.60369 14.45312,6.75586 8.69357,10.46823 15.98142,22.88304 27.49024,30.46875 0.25835,2.3269 0.50558,4.81812 0.69336,7.40039 0.52215,7.18022 1.3949,16.87969 1.9414,21.55469 0.54651,4.67499 0.99324,13.45 0.99024,19.5 -0.003,6.04999 0.66049,16.17499 1.47265,22.5 1.94922,15.18007 3.61102,36.08785 2.95313,37.15234 -0.62008,1.00333 -7.7745,1.14541 -8.74609,0.17383 -0.3701,-0.37011 -12.79781,-0.93261 -27.61719,-1.25 -15.84727,-0.33943 -27.34334,-0.98802 -27.91406,-1.57617 -1.36252,-1.40411 0.0943,-25.67122 3.87109,-64.5 0.45474,-4.675 0.86697,-25.15 0.91797,-45.5 0.0361,-14.42929 0.12151,-24.14882 0.4043,-30.7793 2.84154,-1.07956 5.98249,-1.79572 9.08984,-1.90039 z"
         style="fill:#24221c"
         id="path4192"
         inkscape:connector-curvature="0" />
    </g>
  </g>
</svg>
